<?xml version="1.0" standalone="no"?>
<!DOCTYPE svg PUBLIC "-//W3C//DTD SVG 20010904//EN"
 "http://www.w3.org/TR/2001/REC-SVG-20010904/DTD/svg10.dtd">
<svg version="1.0" xmlns="http://www.w3.org/2000/svg"
 width="512.000000pt" height="512.000000pt" viewBox="0 0 512.000000 512.000000"
 preserveAspectRatio="xMidYMid meet">

<g transform="translate(0.000000,512.000000) scale(0.100000,-0.100000)"
fill="#fff" stroke="none">
<path d="M1695 5106 c-41 -19 -1031 -1014 -1045 -1049 -22 -61 -56 -57 494
-57 l503 0 34 23 c18 12 44 38 56 56 l23 34 0 503 c0 560 5 521 -65 490z"/>
<path d="M2058 4588 c-3 -531 -3 -533 -26 -590 -48 -118 -152 -222 -269 -270
-58 -23 -59 -23 -591 -26 l-532 -3 2 -1662 c3 -1600 4 -1664 22 -1711 59 -152
150 -243 302 -302 47 -18 108 -19 1549 -22 941 -2 1524 1 1563 7 130 20 257
106 326 219 71 119 66 -73 66 2332 0 2405 5 2213 -66 2332 -68 111 -194 198
-320 218 -35 6 -458 10 -1041 10 l-982 0 -3 -532z m572 -1257 c20 -10 44 -36
57 -61 l23 -43 0 -551 0 -550 198 196 c236 236 265 253 357 208 47 -23 85 -80
85 -129 0 -18 -9 -48 -19 -69 -19 -36 -651 -673 -701 -706 -30 -20 -102 -21
-138 -2 -33 18 -695 682 -711 713 -6 12 -11 40 -11 63 0 98 80 163 178 145 31
-6 71 -40 250 -218 l212 -211 0 564 c0 546 1 566 20 598 42 68 129 91 200 53z
m651 -2094 c91 -61 89 -181 -5 -251 -27 -21 -36 -21 -714 -21 -673 0 -688 0
-722 20 -97 57 -95 210 3 259 28 14 110 16 718 16 l686 0 34 -23z"/>
</g>
</svg>
