<?xml version="1.0" standalone="no"?>
<!DOCTYPE svg PUBLIC "-//W3C//DTD SVG 20010904//EN"
 "http://www.w3.org/TR/2001/REC-SVG-20010904/DTD/svg10.dtd">
<svg version="1.0" xmlns="http://www.w3.org/2000/svg"
 width="739.000000pt" height="1000.000000pt" viewBox="0 0 739.000000 1000.000000"
 preserveAspectRatio="xMidYMid meet">

<g transform="translate(0.000000,1000.000000) scale(0.100000,-0.100000)"
fill="#000000" stroke="none">
<path d="M5021 9962 c-20 -21 -56 -72 -81 -112 -56 -93 -213 -252 -340 -346
-52 -39 -168 -117 -258 -175 -282 -180 -401 -268 -512 -379 -58 -58 -123 -131
-144 -163 -36 -55 -40 -58 -70 -53 -155 28 -488 37 -651 17 -296 -37 -582
-128 -819 -261 l-89 -50 -61 40 c-154 99 -315 166 -786 325 -472 159 -651 239
-760 341 -25 22 -55 47 -68 53 -68 36 -137 -99 -182 -352 -31 -178 -41 -316
-42 -562 0 -261 12 -413 48 -632 64 -389 182 -678 355 -867 48 -53 190 -156
214 -156 8 0 12 -45 12 -152 0 -169 11 -237 63 -380 121 -333 436 -594 922
-763 57 -20 191 -61 298 -91 227 -65 351 -109 470 -170 l85 -43 -48 0 c-56 -1
-171 -24 -265 -53 l-66 -20 110 -37 c125 -41 161 -61 169 -94 4 -15 -14 -74
-53 -173 -174 -434 -270 -840 -300 -1265 l-8 -116 -86 -114 c-501 -670 -753
-1336 -708 -1867 22 -258 102 -464 248 -639 95 -114 264 -215 424 -255 l87
-21 -43 -27 c-70 -45 -95 -123 -55 -174 47 -59 56 -61 389 -64 233 -1 306 -5
309 -15 8 -27 47 -57 95 -74 43 -15 89 -17 286 -18 253 0 317 8 402 51 26 13
55 35 64 48 19 30 44 120 44 160 0 50 10 22 25 -72 20 -125 26 -136 73 -150
72 -22 291 -33 417 -22 170 15 251 37 272 74 6 11 59 15 258 19 264 5 319 13
390 57 42 26 55 47 55 90 0 39 -61 107 -126 139 l-47 24 57 23 c135 55 285
187 365 321 89 150 146 339 164 536 2 28 9 31 147 81 519 188 921 427 1215
721 258 257 412 537 477 868 28 143 30 400 4 552 -112 662 -469 1165 -1021
1436 -371 182 -824 242 -1168 155 -180 -46 -281 -99 -370 -196 -119 -128 -101
-248 59 -407 139 -138 357 -271 879 -538 642 -329 830 -455 911 -610 73 -139
79 -305 19 -491 -114 -347 -445 -722 -877 -993 -106 -66 -279 -164 -283 -159
-1 2 -10 47 -19 100 -70 416 -261 860 -565 1313 l-114 170 -8 100 c-34 416
-146 770 -337 1075 -51 80 -144 201 -237 310 -115 133 -135 165 -135 214 1 79
68 209 182 351 l66 84 -30 6 c-40 9 -132 -3 -190 -25 -27 -10 -48 -15 -48 -10
0 11 115 118 186 172 99 76 196 135 386 234 291 152 452 269 593 430 118 135
199 271 253 424 52 147 66 238 66 410 0 166 -14 259 -60 404 l-25 78 23 16
c116 81 192 213 236 412 21 94 24 461 4 590 -36 239 -84 436 -162 665 -101
294 -270 618 -305 583 -3 -3 -13 -43 -22 -89 -8 -46 -19 -93 -24 -104 -7 -18
-8 -17 -8 7 -1 42 -20 81 -49 105 -24 19 -27 27 -27 85 1 34 4 81 8 104 6 37
4 42 -19 52 -45 21 -74 14 -113 -26z m210 -432 c5 0 9 5 9 11 0 14 76 -67 104
-111 44 -68 113 -206 134 -265 35 -99 64 -216 59 -236 -3 -11 -2 -19 3 -19 4
0 10 -11 12 -25 12 -59 -20 -12 -37 55 -9 34 -17 55 -49 125 -16 33 -36 76
-45 95 -9 19 -25 49 -36 65 -11 17 -19 31 -17 33 3 3 -38 76 -74 134 -13 21
-24 40 -24 42 0 3 -16 32 -35 65 -19 32 -35 65 -34 73 0 7 5 1 11 -14 5 -16
14 -28 19 -28z m-4704 -627 c24 -36 22 -135 -5 -318 -26 -172 -30 -229 -37
-520 -7 -277 -17 -336 -56 -354 -24 -11 -32 -10 -52 6 -62 46 -120 312 -111
508 2 39 5 124 8 190 10 249 75 438 170 496 42 26 62 24 83 -8z m3403 -912
c46 -33 51 -92 12 -141 -14 -18 -33 -24 -93 -30 -74 -7 -122 -27 -133 -56 -18
-48 -73 30 -62 89 10 55 79 124 146 148 60 20 91 18 130 -10z m469 4 c77 -16
108 -14 95 7 -16 25 75 -56 118 -105 108 -126 168 -235 193 -351 7 -38 16 -70
18 -73 3 -2 47 7 98 21 95 26 269 59 276 53 1 -2 -7 -13 -20 -24 -12 -12 -93
-43 -187 -72 -90 -29 -168 -57 -171 -63 -4 -7 -10 -28 -14 -47 -10 -52 -50
-128 -97 -185 l-41 -48 29 6 c106 21 294 33 294 18 0 -26 -32 -42 -115 -57
-218 -39 -355 -69 -414 -91 -36 -14 -102 -31 -147 -39 -44 -8 -116 -24 -158
-37 -58 -17 -79 -19 -88 -10 -9 9 -2 16 30 30 l41 19 -85 33 c-116 45 -231
135 -316 248 -24 32 -24 35 -11 85 22 88 55 92 145 17 72 -61 206 -148 239
-155 23 -5 45 2 107 36 149 81 152 85 152 143 0 28 -11 116 -24 196 -43 254
-61 330 -87 374 -10 16 -15 36 -12 45 17 46 36 50 152 26z m-2568 -406 c41
-44 40 -94 -4 -162 -38 -58 -99 -117 -149 -143 -18 -9 -34 -18 -36 -19 -1 -1
7 -22 18 -46 11 -24 20 -57 20 -74 0 -16 20 -88 44 -159 81 -233 163 -309 273
-252 41 21 212 226 269 323 62 103 85 133 105 133 21 0 53 -39 79 -97 10 -24
26 -43 34 -43 21 0 20 -25 -5 -106 -46 -148 -136 -288 -243 -376 -78 -64 -86
-73 -62 -64 18 6 120 -3 113 -11 -3 -2 -53 -10 -113 -18 -60 -8 -131 -22 -159
-31 -27 -8 -104 -19 -170 -24 -66 -5 -181 -23 -255 -39 -123 -28 -136 -29
-147 -14 -7 9 -10 19 -8 23 4 6 89 32 185 57 l35 9 -65 35 c-42 23 -81 55
-109 90 -35 41 -51 54 -70 53 -14 -1 -76 -5 -136 -9 -93 -6 -112 -5 -123 7
-11 14 -4 17 50 27 35 6 94 15 132 21 37 5 70 11 73 13 2 3 -4 31 -14 63 -29
97 -22 457 8 438 5 -3 30 13 54 35 25 23 49 41 54 41 5 0 16 7 24 15 13 12 13
20 1 52 -28 80 -12 145 52 207 56 54 100 75 162 76 48 0 57 -4 83 -31z m3122
-764 c10 -4 16 -13 14 -19 -2 -7 -68 -13 -198 -18 -107 -4 -264 -14 -349 -23
-85 -9 -182 -19 -215 -21 -57 -5 -59 -4 -34 10 34 20 171 54 283 71 97 15 466
15 499 0z m-2674 -479 c-2 -2 -80 -23 -172 -45 -92 -23 -247 -68 -345 -100
-106 -35 -181 -55 -186 -50 -33 30 272 142 499 183 73 13 214 21 204 12z"/>
</g>
</svg>
