<?xml version="1.0" standalone="no"?>
<!DOCTYPE svg PUBLIC "-//W3C//DTD SVG 20010904//EN"
 "http://www.w3.org/TR/2001/REC-SVG-20010904/DTD/svg10.dtd">
<svg version="1.0" xmlns="http://www.w3.org/2000/svg"
 width="1024.000000pt" height="1024.000000pt" viewBox="0 0 1024.000000 1024.000000"
 preserveAspectRatio="xMidYMid meet">

<g transform="translate(0.000000,1024.000000) scale(0.100000,-0.100000)"
fill="#fff" stroke="none">
<path d="M2065 7946 c-40 -61 -26 -157 28 -190 12 -7 67 -19 122 -25 150 -18
334 -57 423 -90 192 -70 300 -182 409 -426 22 -49 458 -1168 968 -2485 511
-1317 937 -2405 949 -2418 46 -51 157 -51 190 1 8 12 470 1066 1026 2342 557
1276 1045 2388 1085 2471 113 236 198 356 310 441 115 88 256 138 463 167 57
8 111 21 119 28 56 46 56 186 0 204 -25 8 -225 -2 -472 -24 -253 -22 -727 -22
-1015 1 -118 9 -283 19 -366 23 l-150 7 -28 -34 c-26 -30 -28 -38 -24 -101 2
-37 9 -73 16 -80 6 -6 67 -17 136 -24 302 -31 482 -117 553 -263 25 -51 28
-66 28 -161 -1 -82 -7 -128 -29 -210 -18 -69 -272 -707 -748 -1880 -396 -976
-723 -1778 -727 -1782 -5 -5 -964 2490 -1374 3572 -149 393 -142 539 29 632
91 49 329 98 479 98 73 0 89 22 83 115 -3 51 -9 70 -28 91 l-25 26 -195 -6
c-107 -4 -305 -14 -440 -23 -332 -23 -903 -23 -1185 0 -115 9 -296 19 -401 23
l-192 7 -17 -27z"/>
</g>
</svg>
